<?xml version="1.0" encoding="UTF-8" standalone="no"?>
<svg
   xmlns:dc="http://purl.org/dc/elements/1.1/"
   xmlns:cc="http://creativecommons.org/ns#"
   xmlns:rdf="http://www.w3.org/1999/02/22-rdf-syntax-ns#"
   xmlns:svg="http://www.w3.org/2000/svg"
   xmlns="http://www.w3.org/2000/svg"
   xmlns:sodipodi="http://sodipodi.sourceforge.net/DTD/sodipodi-0.dtd"
   xmlns:inkscape="http://www.inkscape.org/namespaces/inkscape"
   fill="#000000"
   viewBox="0 0 50 50"
   width="500px"
   height="500px"
   version="1.1"
   id="svg3787"
   sodipodi:docname="instagram2.svg"
   inkscape:version="0.92.5 (2060ec1f9f, 2020-04-08)">
  <metadata
     id="metadata3793">
    <rdf:RDF>
      <cc:Work
         rdf:about="">
        <dc:format>image/svg+xml</dc:format>
        <dc:type
           rdf:resource="http://purl.org/dc/dcmitype/StillImage" />
        <dc:title></dc:title>
      </cc:Work>
    </rdf:RDF>
  </metadata>
  <defs
     id="defs3791" />
  <sodipodi:namedview
     pagecolor="#ffffff"
     bordercolor="#666666"
     borderopacity="1"
     objecttolerance="10"
     gridtolerance="10"
     guidetolerance="10"
     inkscape:pageopacity="0"
     inkscape:pageshadow="2"
     inkscape:window-width="1848"
     inkscape:window-height="1016"
     id="namedview3789"
     showgrid="false"
     inkscape:zoom="1.676"
     inkscape:cx="144.09308"
     inkscape:cy="250"
     inkscape:window-x="72"
     inkscape:window-y="27"
     inkscape:window-maximized="1"
     inkscape:current-layer="svg3787" />
  <path
     fill="none"
     stroke="#000000"
     stroke-miterlimit="10"
     stroke-width="2"
     d="M16,46h18c6.627,0,12-5.373,12-12V16c0-6.627-5.373-12-12-12H16C9.373,4,4,9.373,4,16v18C4,40.627,9.373,46,16,46z"
     id="path3781" />
  <path
     fill="none"
     stroke="#000000"
     stroke-miterlimit="10"
     stroke-width="2"
     d="M25 15A10 10 0 1 0 25 35A10 10 0 1 0 25 15Z"
     id="path3783"
     style="fill:#000000;fill-opacity:0.03431373" />
  <path
     d="M37 11A2 2 0 1 0 37 15A2 2 0 1 0 37 11Z"
     id="path3785"
     style="fill:#ffffff;fill-opacity:1" />
  <path
     style="stroke-width:0.59665871"
     d="m 150.2325,469.29256 c -30.32075,-2.24968 -58.045519,-14.75399 -80.239001,-36.18907 -21.080864,-20.36048 -33.883477,-45.38084 -38.5541,-75.34693 -0.996902,-6.39598 -1.069471,-13.70372 -1.069471,-107.69689 0,-94.22025 0.07056,-101.28546 1.075568,-107.6969 3.846089,-24.5361 12.798631,-45.186965 27.547593,-63.544154 20.423418,-25.419857 49.497431,-42.04076 82.653691,-47.251095 6.42054,-1.008954 13.4196,-1.078261 108.89021,-1.078261 h 102.02864 l 7.45824,1.318369 c 23.98308,4.239415 44.03399,13.217603 61.9141,27.723234 21.09505,17.113834 37.20442,42.337347 43.70435,68.430787 4.0761,16.36322 3.86842,9.80819 3.86842,122.09802 0,94.93178 -0.0692,101.8717 -1.07925,108.29355 -2.1963,13.96347 -6.02345,26.21488 -12.04708,38.56494 -16.80347,34.4516 -48.50115,59.99759 -85.66863,69.0426 -15.6311,3.80395 -9.14883,3.59685 -116.30051,3.71557 -53.65453,0.0594 -100.53678,-0.11325 -104.18277,-0.38377 z m 201.31249,-19.68594 c 50.86673,-5.54896 91.16856,-44.81456 97.67503,-95.16361 0.81688,-6.32131 0.90431,-19.39329 0.72228,-107.99522 -0.22426,-109.1506 -0.002,-101.54666 -3.35664,-114.65539 -9.74015,-38.057036 -41.01238,-69.046671 -79.29269,-78.576157 -12.7666,-3.178112 -7.32381,-3.037245 -117.35264,-3.037245 -110.32297,0 -104.83196,-0.145559 -117.54176,3.115867 -44.285355,11.363942 -77.006047,49.333555 -82.005186,95.160145 -0.871044,7.98475 -0.873187,195.19675 -0.0023,203.20932 4.603919,42.35954 33.260329,78.47262 73.402876,92.50299 6.20219,2.16775 17.03038,4.64264 23.52111,5.37597 7.01424,0.79248 197.00583,0.85139 204.22995,0.0633 z"
     id="path3795"
     inkscape:connector-curvature="0"
     transform="scale(0.1)" />
  <path
     style="stroke-width:0.59665871;fill:#ffffff;fill-opacity:1"
     d="M 150.29833,469.31252 C 94.894618,465.37199 47.224243,425.00993 34.04634,370.88305 c -3.86231,-15.86403 -3.676412,-9.75457 -3.676412,-120.82338 0,-110.99017 -0.174614,-105.22531 3.658733,-120.79195 8.931739,-36.270429 32.87217,-66.807544 65.944364,-84.115054 13.212045,-6.914192 25.597845,-10.979755 41.375425,-13.58123 6.15831,-1.015409 12.87651,-1.082176 108.89021,-1.082176 96.61896,0 102.69308,0.06129 108.89022,1.098792 28.42823,4.759339 52.62215,16.976609 72.24184,36.480163 18.06347,17.956551 30.59357,41.120405 35.66986,65.941335 2.78681,13.62633 2.85416,16.71682 2.6331,120.82339 -0.23008,108.34835 0.0195,101.28131 -4.15061,117.54176 -11.80694,46.03902 -48.23157,82.01186 -94.79079,93.61509 -14.97294,3.73147 -9.38983,3.55495 -116.31701,3.67762 -53.65453,0.0615 -100.50716,-0.0982 -104.11694,-0.35489 z m 200.47733,-19.69228 c 21.16072,-1.99065 42.22238,-10.65953 58.85998,-24.22649 6.03944,-4.92479 15.85131,-15.40748 20.3252,-21.71479 7.95582,-11.21614 14.79542,-26.80155 17.79632,-40.55247 2.39712,-10.98428 2.46349,-14.48966 2.21977,-117.24344 -0.25874,-109.08492 -0.0149,-101.98901 -3.98987,-116.10936 C 435.80249,93.594863 406.16497,63.973518 370.204,54.03201 c -14.41797,-3.985889 -6.91486,-3.716473 -110.86997,-3.981026 -98.68885,-0.25115 -112.97037,-4.24e-4 -122.46052,2.149922 -14.08969,3.192543 -29.54716,9.986047 -40.552472,17.822678 -6.330984,4.508147 -16.820314,14.335751 -21.710392,20.340778 -7.590026,9.32056 -14.856134,22.300158 -18.78102,33.548898 -2.495761,7.15287 -4.716177,17.52157 -5.484157,25.60941 -0.451426,4.75412 -0.583171,37.09899 -0.428942,105.31027 0.245441,108.55251 -0.04099,100.30515 3.989033,114.8568 8.345755,30.13491 29.796624,55.74949 58.25867,69.56694 11.14999,5.41298 24.93664,9.32764 36.44447,10.34825 8.22597,0.72954 194.42472,0.74365 202.16696,0.0153 z"
     id="path3797"
     inkscape:connector-curvature="0"
     transform="scale(0.1)" />
</svg>
