<?xml version="1.0" encoding="UTF-8" standalone="no"?>
<svg
   xmlns:dc="http://purl.org/dc/elements/1.1/"
   xmlns:cc="http://creativecommons.org/ns#"
   xmlns:rdf="http://www.w3.org/1999/02/22-rdf-syntax-ns#"
   xmlns:svg="http://www.w3.org/2000/svg"
   xmlns="http://www.w3.org/2000/svg"
   xmlns:sodipodi="http://sodipodi.sourceforge.net/DTD/sodipodi-0.dtd"
   xmlns:inkscape="http://www.inkscape.org/namespaces/inkscape"
   fill="#000000"
   viewBox="0 0 50 50"
   width="500px"
   height="500px"
   version="1.1"
   id="svg8"
   sodipodi:docname="telegram2.svg"
   inkscape:version="0.92.5 (2060ec1f9f, 2020-04-08)">
  <metadata
     id="metadata14">
    <rdf:RDF>
      <cc:Work
         rdf:about="">
        <dc:format>image/svg+xml</dc:format>
        <dc:type
           rdf:resource="http://purl.org/dc/dcmitype/StillImage" />
        <dc:title></dc:title>
      </cc:Work>
    </rdf:RDF>
  </metadata>
  <defs
     id="defs12" />
  <sodipodi:namedview
     pagecolor="#ffffff"
     bordercolor="#666666"
     borderopacity="1"
     objecttolerance="10"
     gridtolerance="10"
     guidetolerance="10"
     inkscape:pageopacity="0"
     inkscape:pageshadow="2"
     inkscape:window-width="1848"
     inkscape:window-height="1016"
     id="namedview10"
     showgrid="false"
     inkscape:zoom="1.888"
     inkscape:cx="416.16116"
     inkscape:cy="213.6917"
     inkscape:window-x="72"
     inkscape:window-y="27"
     inkscape:window-maximized="1"
     inkscape:current-layer="svg8" />
  <path
     fill="none"
     stroke="#000000"
     stroke-miterlimit="10"
     stroke-width="2"
     d="M43.361,7.242 C42.077,7.758,5.633,23.389,5.633,23.389s-1.765,0.614-1.625,1.748s1.58,1.653,1.58,1.653l9.38,3.212c0,0,2.832,9.448,3.39,11.241 c0.558,1.796,1.004,1.838,1.004,1.838c0.518,0.23,0.992-0.137,0.992-0.137l6.061-5.622l9.448,7.369 c2.554,1.134,3.483-1.228,3.483-1.228l6.509-33.925C46.431,6.913,44.717,6.699,43.361,7.242z"
     id="path2" />
  <polyline
     fill="none"
     stroke="#000000"
     stroke-linecap="round"
     stroke-linejoin="round"
     stroke-miterlimit="10"
     stroke-width="2"
     points="15,30 39,14 22,34"
     id="polyline4" />
  <polyline
     fill="none"
     stroke="#000000"
     stroke-linecap="round"
     stroke-linejoin="round"
     stroke-miterlimit="10"
     stroke-width="2"
     points="20,43 22,34 26,37"
     id="polyline6" />
  <path
     style="stroke-width:0.529661;fill:#ffffff"
     d="m 367.37938,459.49377 c -11.63998,-2.29216 -10.43697,-1.55588 -39.15136,-23.96169 -54.28091,-42.35533 -63.26073,-49.32971 -63.51412,-49.32971 -0.14413,0 -12.61712,11.46354 -27.71778,25.47454 -15.10065,14.011 -28.46864,26.07016 -29.70664,26.79813 -3.27876,1.92797 -7.78059,2.96955 -11.55269,2.67291 -8.18786,-0.64389 -13.6505,-5.78812 -18.41289,-17.33965 -1.80225,-4.3715 -6.8038,-20.60916 -26.23626,-85.17655 L 141.74378,307.5853 106.52133,295.53472 C 42.115287,273.49964 45.516279,274.87651 38.725827,268.08796 31.170655,260.53491 28.682661,252.51015 31.312348,244.1766 c 1.978964,-6.27141 7.078514,-11.89767 14.562791,-16.06694 1.747881,-0.97369 78.138241,-33.87158 169.756351,-73.10641 192.98325,-82.643766 213.46993,-91.367913 218.48517,-93.040835 3.15574,-1.052649 4.77608,-1.236741 10.88552,-1.236741 h 7.1779 l 4.0287,1.991091 c 6.55355,3.238941 10.45035,8.195067 12.37768,15.742478 1.91192,7.487037 3.02686,1.103082 -32.56303,186.450757 -18.09565,94.23993 -33.27032,172.34254 -33.72148,173.56135 -1.32518,3.58 -4.88679,8.66303 -8.55946,12.21581 -6.72227,6.50283 -18.34525,10.38549 -26.36311,8.80661 z m 8.59549,-20.07686 c 2.7123,-1.13327 4.97158,-2.95761 6.63461,-5.35737 1.30203,-1.87883 4.15948,-16.32481 34.27632,-173.28603 23.55479,-122.76152 32.85586,-172.261506 32.85586,-174.857765 0,-5.012294 -0.90247,-6.103684 -4.96845,-6.008487 -1.63848,0.03836 -3.87228,0.356872 -4.96399,0.707799 C 436.81248,81.578351 413.74985,91.38806 298.54099,140.70361 69.834296,238.6023 55.304383,244.87583 52.670081,246.86238 c -3.331069,2.512 -3.555319,3.99188 -1.02869,6.78855 1.021407,1.13058 3.042426,2.70073 4.491154,3.48923 1.448728,0.78849 22.838147,8.35113 47.532045,16.80586 l 44.89799,15.37223 118.94229,-79.29587 c 107.89167,-71.92868 119.17031,-79.31786 121.39644,-79.53253 1.34978,-0.13017 3.30042,0.0426 4.33477,0.384 2.42684,0.80093 5.44399,4.15525 6.1731,6.86294 1.01716,3.77747 -0.0239,6.18666 -5.45239,12.61782 -8.7503,10.36651 -157.79716,185.77098 -158.82508,186.91187 l -1.00646,1.11708 17.20541,12.91894 c 9.46297,7.10541 38.56568,29.60326 64.67267,49.99521 50.53427,39.47188 49.60772,38.82248 55.49793,38.89773 1.3931,0.0178 3.40622,-0.33254 4.47361,-0.77853 z M 202.36532,374.285 c 4.42848,-20.10064 8.32238,-37.26166 8.65311,-38.1356 0.33072,-0.87394 1.58179,-2.66154 2.78015,-3.97245 5.75953,-6.30049 122.13117,-143.64949 121.9031,-143.87756 -0.20625,-0.20625 -172.77,114.44223 -174.20056,115.73595 -0.20338,0.18392 5.6646,20.35559 13.03994,44.82593 18.35093,60.88577 18.96514,62.86156 19.3945,62.3876 0.20789,-0.2295 4.00128,-16.86324 8.42976,-36.96387 z m 31.95181,13.27343 14.71317,-13.65 -11.24289,-8.43021 c -7.74302,-5.80591 -11.35482,-8.22052 -11.60247,-7.75663 -0.19777,0.37047 -2.54779,10.68417 -5.22226,22.91934 -2.67447,12.23517 -4.99486,22.72246 -5.15641,23.30508 -0.22466,0.81022 0.18733,0.6129 1.75198,-0.83913 1.12514,-1.04415 8.66663,-8.04095 16.75888,-15.54845 z"
     id="path3719"
     inkscape:connector-curvature="0"
     transform="scale(0.1)" />
</svg>
